<svg width="48" height="48" viewBox="0 0 48 48" fill="none" xmlns="http://www.w3.org/2000/svg">
<mask id="mask0_80_238" style="mask-type:alpha" maskUnits="userSpaceOnUse" x="0" y="0" width="48" height="48">
<rect width="48" height="48" fill="white"/>
</mask>
<g mask="url(#mask0_80_238)">
<path d="M16.1464 33.9536L16.5 34.3071L16.8536 33.9536L24 26.8071L31.1464 33.9536L31.5 34.3071L31.8536 33.9536L33.9536 31.8536L34.3071 31.5L33.9536 31.1464L26.8071 24L33.9536 16.8536L34.3071 16.5L33.9536 16.1464L31.8536 14.0464L31.5 13.6929L31.1464 14.0464L24 21.1929L16.8536 14.0464L16.5 13.6929L16.1464 14.0464L14.0464 16.1464L13.6929 16.5L14.0464 16.8536L21.1929 24L14.0464 31.1464L13.6929 31.5L14.0464 31.8536L16.1464 33.9536ZM16.0519 42.8841C18.5498 43.9619 21.2007 44.5 24 44.5C26.8317 44.5 29.4995 43.9623 31.9981 42.8841C34.488 41.8097 36.6585 40.3407 38.5052 38.4769C40.3507 36.6143 41.8103 34.4366 42.8841 31.9481C43.9619 29.4502 44.5 26.7993 44.5 24C44.5 21.1683 43.9623 18.5005 42.8841 16.0019C41.8101 13.513 40.3501 11.343 38.5036 9.49645C36.657 7.64993 34.487 6.18991 31.9981 5.11592C29.4995 4.03774 26.8317 3.5 24 3.5C21.2007 3.5 18.5498 4.03807 16.0519 5.11592C13.5634 6.18973 11.3857 7.64929 9.52308 9.49482C7.65932 11.3415 6.19032 13.512 5.11592 16.0019C4.03774 18.5005 3.5 21.1683 3.5 24C3.5 26.7993 4.03807 29.4502 5.11592 31.9481C6.19015 34.4376 7.65868 36.6158 9.52145 38.4786C11.3842 40.3413 13.5624 41.8099 16.0519 42.8841ZM35.6956 35.6723C32.4906 38.8935 28.602 40.5 24 40.5C19.4323 40.5 15.5512 38.8941 12.3286 35.6714C9.10587 32.4488 7.5 28.5677 7.5 24C7.5 19.398 9.10654 15.5094 12.3277 12.3044C15.5502 9.09814 19.4315 7.5 24 7.5C28.6028 7.5 32.4917 9.09881 35.6964 12.3036C38.9012 15.5083 40.5 19.3972 40.5 24C40.5 28.5685 38.9019 32.4498 35.6956 35.6723Z" fill="#FE6941" stroke="#FE6941"/>
</g>
</svg>
